<?xml version="1.0" encoding="utf-8"?>
<svg width="500" height="37" xmlns="http://www.w3.org/2000/svg" xmlns:xlink="http://www.w3.org/1999/xlink">
  <defs>
    <style type="text/css">
            @namespace "http://www.w3.org/2000/svg";
                .line                 {fill: none; stroke: #636273;}
                .bold-line            {stroke: #636273; shape-rendering: crispEdges; stroke-width: 2; }
                .thin-line            {stroke: #636273; shape-rendering: crispEdges}
                .filled               {fill: #636273; stroke: none;}
                text.terminal         {font-family: -apple-system, BlinkMacSystemFont, "Segoe UI", Roboto, Ubuntu, Cantarell, Helvetica, sans-serif;
                font-size: 12px;
                fill: #ffffff;
                font-weight: bold;
                }
                text.nonterminal      {font-family: -apple-system, BlinkMacSystemFont, "Segoe UI", Roboto, Ubuntu, Cantarell, Helvetica, sans-serif;
                font-size: 12px;
                fill: #e289a4;
                font-weight: normal;
                }
                text.regexp           {font-family: -apple-system, BlinkMacSystemFont, "Segoe UI", Roboto, Ubuntu, Cantarell, Helvetica, sans-serif;
                font-size: 12px;
                fill: #00141F;
                font-weight: normal;
                }
                rect, circle, polygon {fill: none; stroke: none;}
                rect.terminal         {fill: none; stroke: #be2f5b;}
                rect.nonterminal      {fill: rgba(255,255,255,0.1); stroke: none;}
                rect.text             {fill: none; stroke: none;}
                polygon.regexp        {fill: #C7ECFF; stroke: #038cbc;}
        </style>
  </defs>
  <polygon points="9 17 1 13 1 21"/>
  <polygon points="17 17 9 13 9 21"/>
  <rect x="31" y="3" width="62" height="32" rx="10"/>
  <rect x="29" y="1" width="62" height="32" class="terminal" rx="10"/>
  <text class="terminal" x="39" y="21" style="white-space: pre;">ALTER</text>
  <rect x="113" y="3" width="78" height="32" rx="10"/>
  <rect x="111" y="1" width="78" height="32" class="terminal" rx="10"/>
  <text class="terminal" x="121" y="21" style="white-space: pre;">COLUMN</text>
  <a title="columnName" xlink:href="#columnName">
    <rect x="211" y="3" width="102" height="32"/>
    <rect x="209" y="1" width="102" height="32" class="nonterminal"/>
    <text class="nonterminal" x="219" y="21" style="white-space: pre;">columnName</text>
  </a>
  <rect x="333" y="3" width="48" height="32" rx="10"/>
  <rect x="331" y="1" width="48" height="32" class="terminal" rx="10"/>
  <text class="terminal" x="341" y="21" style="white-space: pre;">DROP</text>
  <rect x="401" y="3" width="64" height="32" rx="10"/>
  <rect x="399" y="1" width="64" height="32" class="terminal" rx="10"/>
  <text class="terminal" x="409" y="21" style="white-space: pre;">INDEX</text>
  <polygon points="483 17 491 13 491 21"/>
  <polygon points="483 17 475 13 475 21"/>
</svg>